<?xml version="1.0" encoding="UTF-8" standalone="no"?>
<!DOCTYPE svg PUBLIC "-//W3C//DTD SVG 1.1//EN" "http://www.w3.org/Graphics/SVG/1.1/DTD/svg11.dtd">
<svg version="1.1" xmlns="http://www.w3.org/2000/svg" xmlns:xlink="http://www.w3.org/1999/xlink" preserveAspectRatio="xMidYMid meet" viewBox="191.54956406659107 161.83535859515976 222.48168593340887 54.7896414048401" width="300" height="150"><defs><text id="b1lP3PlDYf" x="237.25" y="195.12" font-size="32" font-family="Oleo Script" font-weight="600" font-style="normal" letter-spacing="0" alignment-baseline="before-edge" transform="matrix(1 0 0 1 -2.25 -22.50000000000003)" style="line-height:100%" xml:space="preserve" dominant-baseline="text-before-edge"><tspan x="237.25" dy="0em" alignment-baseline="before-edge" dominant-baseline="text-before-edge" text-anchor="start">R</tspan></text><text id="acgElPCcF" x="278.75" y="213.87" font-size="32" font-family="Oleo Script" font-weight="600" font-style="normal" letter-spacing="0" alignment-baseline="before-edge" transform="matrix(1 0 0 1 -22.25 -42.75000000000006)" style="line-height:100%" xml:space="preserve" dominant-baseline="text-before-edge"><tspan x="278.75" dy="0em" alignment-baseline="before-edge" dominant-baseline="text-before-edge" text-anchor="start">-</tspan></text><text id="f3Xo7dbdYm" x="348.25" y="242.87" font-size="32" font-family="Oleo Script" font-weight="600" font-style="normal" letter-spacing="0" alignment-baseline="before-edge" transform="matrix(1 0 0 1 -79.93750000000006 -70.25000000000009)" style="line-height:100%" xml:space="preserve" dominant-baseline="text-before-edge"><tspan x="348.25" dy="0em" alignment-baseline="before-edge" dominant-baseline="text-before-edge" text-anchor="start">W</tspan></text><text id="cc0sNwAYS" x="307.5" y="193.12" font-size="32" font-family="Oleo Script" font-weight="600" font-style="normal" letter-spacing="0" alignment-baseline="before-edge" transform="matrix(1 0 0 1 -8 -22)" style="line-height:100%" xml:space="preserve" dominant-baseline="text-before-edge"><tspan x="307.5" dy="0em" alignment-baseline="before-edge" dominant-baseline="text-before-edge" text-anchor="start">allpapers</tspan></text><path d="M212.15 211.14C210.51 211.14 209.59 211.14 209.41 211.14C206.93 209.68 205.1 205.1 205.1 199.51C205.1 198.23 205.19 196.95 205.38 195.76C207.03 196.22 208.86 196.49 210.78 196.49C212.7 196.49 214.44 196.22 216.18 195.76C216.37 196.95 216.46 198.23 216.46 199.51C216.46 205.1 214.63 209.68 212.15 211.14" id="by7mqdMwP"></path><path d="M198.88 174.51C198.14 173.78 197.04 173.41 195.95 173.41C193.56 173.41 191.55 175.34 191.55 177.81C191.55 179.37 192.37 180.83 193.66 181.56C193.56 181.93 193.56 182.39 193.56 182.85C193.56 185.96 195.4 188.89 198.69 191.09C199.79 191.82 200.89 192.37 202.17 192.83C199.7 194.02 197.96 196.86 197.96 200.15C197.96 203.91 200.16 207.02 203.09 207.85C203.36 208.58 203.55 209.22 203.82 209.86C203.73 209.86 203.55 209.86 203.45 209.86C200.8 209.86 198.51 211.69 198.51 213.89C198.51 214.26 198.6 214.81 198.69 215.26C198.97 215.54 199.24 215.72 199.61 215.72C201.82 215.72 219.55 215.72 221.77 215.72C222.14 215.72 222.41 215.54 222.5 215.17C222.59 214.81 222.5 214.16 222.5 213.89C222.5 211.69 220.58 209.86 217.92 209.86C217.83 209.86 217.74 209.86 217.65 209.86C217.92 209.22 218.2 208.49 218.38 207.85C221.31 207.02 223.51 203.91 223.51 200.15C223.51 196.86 221.77 194.02 219.3 192.83C220.58 192.37 221.68 191.73 222.78 191.09C226.07 188.89 227.9 185.96 227.9 182.85C227.9 182.39 227.9 182.02 227.81 181.56C229.1 180.83 229.92 179.37 229.92 177.81C229.92 175.43 228 173.41 225.52 173.41C224.42 173.41 223.42 173.87 222.59 174.51C219.75 172.68 215.63 171.03 211.51 170.85C211.45 170.85 211.15 170.85 210.6 170.85L210.6 170.85C204.86 172.01 200.95 173.23 198.88 174.51Z" id="l76kfHL2e"></path><path d="M227.08 166.27C227.08 164.26 225.43 162.61 223.42 162.61C221.4 162.61 219.75 164.26 219.75 166.27C219.75 168.29 221.4 169.93 223.42 169.93C225.43 169.93 227.08 168.29 227.08 166.27" id="bd860iVbG"></path><path d="M207.85 180.92C207.85 179.37 206.66 178.18 205.1 178.18C203.55 178.18 202.36 179.37 202.36 180.92C202.36 182.48 203.55 183.67 205.1 183.67C206.66 183.67 207.85 182.48 207.85 180.92" id="c7GpyH1hA8"></path><path d="M210.32 171.77C209.86 171.58 209.59 171.12 209.68 170.67C209.91 169.9 211.74 163.74 211.97 162.97C212.25 162.15 213.07 161.69 213.89 161.88C214.54 162.06 219.75 163.52 220.4 163.71C220.85 163.89 221.13 164.35 221.04 164.81C220.85 165.26 220.4 165.54 219.94 165.45C219.52 165.32 217.45 164.71 213.71 163.62C212.39 168.12 211.66 170.62 211.51 171.12C211.33 171.49 210.96 171.77 210.6 171.77C210.51 171.77 210.41 171.77 210.32 171.77Z" id="a772oblWQ5"></path><path d="M218.84 180.92C218.84 179.37 217.65 178.18 216.09 178.18C214.53 178.18 213.34 179.37 213.34 180.92C213.34 182.48 214.53 183.67 216.09 183.67C217.65 183.67 218.84 182.48 218.84 180.92" id="e2WlSErMTW"></path><path d="M204.46 187.97C204.1 187.61 204.1 187.06 204.46 186.69C204.83 186.33 205.38 186.33 205.74 186.69C206.48 187.42 208.12 188.25 210.6 188.25C213.07 188.25 214.72 187.42 215.45 186.69C215.82 186.33 216.37 186.33 216.73 186.69C217.1 187.06 217.1 187.61 216.73 187.97C215.45 189.26 213.07 190.08 210.6 190.08C208.12 190.08 205.74 189.26 204.46 187.97Z" id="e1PR5lfrxp"></path></defs><g><g><g id="cgRi7RlTP"><use xlink:href="#b1lP3PlDYf" opacity="1" fill="#ff4500" fill-opacity="1"></use></g><g id="gnvFKr9R"><use xlink:href="#acgElPCcF" opacity="1" fill="#2d3939" fill-opacity="1"></use></g><g id="a3MDW2AtCT"><use xlink:href="#f3Xo7dbdYm" opacity="1" fill="#ff4500" fill-opacity="1"></use></g><g id="b1R0ry8MFp"><use xlink:href="#cc0sNwAYS" opacity="1" fill="#2d3939" fill-opacity="1"></use></g></g><g><g><use xlink:href="#by7mqdMwP" opacity="1" fill="#2d3939" fill-opacity="1"></use><g><use xlink:href="#by7mqdMwP" opacity="1" fill-opacity="0" stroke="#000000" stroke-width="1" stroke-opacity="0"></use></g></g><g><use xlink:href="#l76kfHL2e" opacity="1" fill="#2d3939" fill-opacity="1"></use><g><use xlink:href="#l76kfHL2e" opacity="1" fill-opacity="0" stroke="#000000" stroke-width="1" stroke-opacity="0"></use></g></g><g><use xlink:href="#bd860iVbG" opacity="1" fill="#2d3939" fill-opacity="1"></use><g><use xlink:href="#bd860iVbG" opacity="1" fill-opacity="0" stroke="#000000" stroke-width="1" stroke-opacity="0"></use></g></g><g><use xlink:href="#c7GpyH1hA8" opacity="1" fill="#ffffff" fill-opacity="1"></use><g><use xlink:href="#c7GpyH1hA8" opacity="1" fill-opacity="0" stroke="#000000" stroke-width="1" stroke-opacity="0"></use></g></g><g><use xlink:href="#a772oblWQ5" opacity="1" fill="#2d3939" fill-opacity="1"></use><g><use xlink:href="#a772oblWQ5" opacity="1" fill-opacity="0" stroke="#000000" stroke-width="1" stroke-opacity="0"></use></g></g><g><use xlink:href="#e2WlSErMTW" opacity="1" fill="#ffffff" fill-opacity="1"></use><g><use xlink:href="#e2WlSErMTW" opacity="1" fill-opacity="0" stroke="#000000" stroke-width="1" stroke-opacity="0"></use></g></g><g><use xlink:href="#e1PR5lfrxp" opacity="1" fill="#ffffff" fill-opacity="1"></use><g><use xlink:href="#e1PR5lfrxp" opacity="1" fill-opacity="0" stroke="#000000" stroke-width="1" stroke-opacity="0"></use></g></g></g></g></svg>